
<!-- Generator: visioncortex VTracer 0.6.4 -->
<svg version="1.1" xmlns="http://www.w3.org/2000/svg" viewBox="0 0 1000 1000" preserveAspectRatio="xMidYMid meet">
<path d="M0 0 C330 0 660 0 1000 0 C1000 330 1000 660 1000 1000 C670 1000 340 1000 0 1000 C0 670 0 340 0 0 Z " fill="#FEFEFE" transform="translate(0,0)"/>
<path d="M0 0 C1.771 0.459 3.542 0.917 5.312 1.375 C10.752 3.047 15.284 5.868 20 9 C20.825 9.538 21.65 10.075 22.5 10.629 C37.322 20.61 47.616 32.715 55 49 C55.379 49.793 55.758 50.586 56.148 51.402 C60.892 61.55 62.584 70.719 62.562 81.938 C62.561 83.213 62.559 84.488 62.557 85.802 C62.351 96.737 60.331 106.006 56 116 C55.606 116.963 55.211 117.926 54.805 118.918 C50.001 129.482 42.628 139.298 34 147 C33.128 147.789 33.128 147.789 32.238 148.594 C28.331 152 28.331 152 26 152 C26 152.66 26 153.32 26 154 C2.409 166.11 -22.211 174.922 -48.869 166.734 C-64.095 161.526 -77.297 153.426 -88.379 141.629 C-90.105 139.787 -90.105 139.787 -93 138 C-93.124 137.237 -93.248 136.474 -93.375 135.688 C-94.356 131.47 -97.418 129.289 -100.688 126.625 C-102 125 -102 125 -102.938 121.688 C-103.779 117.988 -103.779 117.988 -105.938 115.312 C-108.429 111.312 -109.278 107.569 -110.289 103 C-110.921 100.009 -110.921 100.009 -112.066 97.316 C-117.523 77.934 -110.891 57.171 -102 40 C-99.912 36.42 -97.634 33.196 -95 30 C-94.323 29.174 -93.646 28.347 -92.949 27.496 C-82.57 15.421 -69.961 6.081 -54.957 0.711 C-53.481 0.175 -52.023 -0.409 -50.574 -1.016 C-34.824 -7.039 -15.619 -5.162 0 0 Z " fill="#020101" transform="translate(307,355)"/>
<path d="M0 0 C16.348 12.572 27.644 29.221 32.723 49.25 C33.392 51.891 33.392 51.891 34.539 54.215 C35.806 57.872 35.809 61.386 35.781 65.211 C35.774 66.396 35.774 66.396 35.766 67.606 C35.278 92.708 24.02 115.092 6.152 132.41 C1.621 136.611 -3.242 139.725 -8.531 142.898 C-9.191 143.558 -9.851 144.218 -10.531 144.898 C-15.749 147.394 -21.166 149.156 -26.664 150.934 C-28.492 151.549 -30.304 152.219 -32.086 152.957 C-45.962 158.299 -65.996 156.356 -79.531 150.898 C-80.524 150.548 -81.516 150.197 -82.539 149.836 C-102.902 142.18 -121.082 126.481 -130.531 106.898 C-131.303 105.367 -131.303 105.367 -132.09 103.805 C-140.843 85.819 -142.754 69.087 -138.781 49.586 C-138.625 48.816 -138.468 48.046 -138.307 47.253 C-137.14 42.176 -135.257 38.331 -132.531 33.898 C-132.077 32.805 -131.624 31.712 -131.156 30.586 C-124.97 15.844 -112.462 1.735 -98.531 -6.102 C-97.825 -6.524 -97.118 -6.947 -96.391 -7.383 C-91.227 -10.367 -86.26 -12.477 -80.531 -14.102 C-78.837 -14.631 -78.837 -14.631 -77.109 -15.172 C-50.158 -23.143 -22.427 -16.252 0 0 Z " fill="#020101" transform="translate(794.53125,369.1015625)"/>
<path d="M0 0 C1.281 -0.063 2.563 -0.126 3.883 -0.191 C9.287 0.326 12.223 3.841 15.875 7.562 C16.782 8.467 17.688 9.372 18.623 10.304 C20.677 12.363 22.721 14.433 24.757 16.51 C34.296 26.236 43.668 35.732 54.875 43.562 C55.749 44.179 55.749 44.179 56.64 44.809 C59.454 46.794 62.282 48.754 65.133 50.688 C66.811 51.835 68.467 53.015 70.082 54.25 C71.9 55.699 71.9 55.699 74.438 56.562 C76.875 57.562 76.875 57.562 78.203 58.957 C80.303 60.974 82.438 61.987 85.062 63.25 C88.662 64.995 92.251 66.746 95.801 68.59 C102.781 72.197 109.567 75.426 117.129 77.676 C119.831 78.548 122.385 79.633 124.985 80.771 C136.446 85.571 148.721 89.086 160.875 91.562 C161.735 91.746 162.594 91.929 163.48 92.118 C180.768 95.646 197.854 95.915 215.438 95.875 C217.125 95.871 217.125 95.871 218.846 95.868 C222.107 95.855 225.368 95.831 228.629 95.801 C229.599 95.793 230.569 95.786 231.568 95.778 C248.356 95.55 264.259 92.218 280.562 88.5 C281.698 88.243 282.833 87.985 284.002 87.72 C285.078 87.471 286.153 87.222 287.262 86.965 C288.704 86.632 288.704 86.632 290.175 86.293 C292.85 85.569 295.315 84.616 297.875 83.562 C298.989 83.253 300.102 82.944 301.25 82.625 C304.954 81.539 308.341 80.105 311.875 78.562 C313.248 78.112 313.248 78.112 314.648 77.652 C339.159 69.373 361.588 55.376 381.875 39.562 C382.753 38.879 383.631 38.196 384.535 37.492 C394.753 29.336 404.274 20.316 413.375 10.938 C418.272 6.032 422.219 2.45 429.438 2.125 C436.555 2.51 440.611 5.965 445.457 10.844 C447.903 13.808 448.057 16.673 448.125 20.375 C448.151 21.206 448.177 22.038 448.203 22.895 C447.412 29.331 443.251 33.818 439.125 38.5 C438.587 39.118 438.049 39.735 437.495 40.371 C432.028 46.606 426.297 52.299 420.008 57.703 C418.565 58.961 417.143 60.243 415.742 61.547 C401.952 74.356 386.422 85.73 369.742 94.492 C367.777 95.566 367.777 95.566 365.762 97.164 C363.875 98.562 363.875 98.562 361.812 99.062 C359.784 99.404 359.784 99.404 358.5 101 C356.259 103.155 353.805 103.627 350.875 104.562 C350.215 105.222 349.555 105.882 348.875 106.562 C346.795 107.348 344.687 107.956 342.555 108.586 C340.259 109.423 338.241 110.369 336.078 111.488 C332.071 113.531 328.029 115.01 323.75 116.375 C322.609 116.746 322.609 116.746 321.445 117.124 C319.8 117.657 318.153 118.188 316.506 118.715 C313.733 119.608 310.966 120.52 308.199 121.434 C306.279 122.061 304.358 122.687 302.438 123.312 C301.551 123.606 300.665 123.9 299.751 124.202 C294.212 125.986 288.757 127.231 283.008 128.142 C280.9 128.352 280.9 128.352 279.875 129.562 C232.119 140.022 178.714 136.923 131.875 123.562 C130.72 123.236 129.565 122.91 128.375 122.574 C125.188 121.625 122.033 120.604 118.875 119.562 C117.525 119.14 116.175 118.718 114.824 118.297 C88.391 109.928 63.313 97.884 40.875 81.562 C40.31 81.161 39.744 80.76 39.162 80.346 C28.567 72.81 19.055 64.48 9.758 55.399 C8.1 53.782 6.427 52.183 4.746 50.59 C-0.259 45.755 -4.804 40.695 -9.125 35.25 C-9.582 34.675 -10.04 34.1 -10.511 33.507 C-15.761 26.718 -17.833 22.074 -16.91 13.547 C-15.638 8.711 -12.764 5.84 -9.125 2.562 C-6.239 -0.324 -4.027 0.124 0 0 Z " fill="#030202" transform="translate(303.125,570.4375)"/>
<path d="M0 0 C5.425 2.364 9.16 6.712 13.312 10.812 C14.161 11.62 15.01 12.428 15.885 13.26 C16.682 14.047 17.479 14.834 18.301 15.645 C19.402 16.717 19.402 16.717 20.525 17.812 C22 20 22 20 21.852 22.638 C20.72 25.777 19.106 27.107 16.562 29.25 C11.962 33.171 7.571 37.243 3.227 41.445 C1 43 1 43 -0.937 42.766 C-3.221 41.918 -4.472 40.966 -6.242 39.305 C-6.834 38.753 -7.426 38.201 -8.035 37.633 C-8.642 37.053 -9.249 36.473 -9.875 35.875 C-10.474 35.318 -11.074 34.761 -11.691 34.188 C-15.766 30.351 -19.421 26.302 -23 22 C-21.262 18.214 -19.305 16.39 -16 13.812 C-10.467 9.413 -5.207 4.778 0 0 Z " fill="#787776" transform="translate(773,430)"/>
<path d="M0 0 C3.282 1.12 3.714 2.775 5.342 5.799 C7.113 8.079 9.012 10.246 10.904 12.424 C16.109 18.45 16.109 18.45 18.342 21.799 C17.831 26.895 13.996 29.61 10.342 32.799 C-1.22 42.143 -1.22 42.143 -5.658 42.799 C-25.658 22.052 -25.658 22.052 -25.658 15.799 C-24.438 15.266 -24.438 15.266 -23.193 14.721 C-17.864 12.062 -13.409 7.966 -8.848 4.186 C-8.124 3.61 -7.4 3.034 -6.654 2.44 C-6.006 1.909 -5.359 1.378 -4.691 0.832 C-2.658 -0.201 -2.658 -0.201 0 0 Z " fill="#787776" transform="translate(316.658203125,432.20068359375)"/>
<path d="M0 0 C5.425 2.364 9.16 6.712 13.312 10.812 C14.161 11.62 15.01 12.428 15.885 13.26 C16.682 14.047 17.479 14.834 18.301 15.645 C19.402 16.717 19.402 16.717 20.525 17.812 C22 20 22 20 21.852 22.638 C20.72 25.777 19.106 27.107 16.562 29.25 C15.669 30.017 14.776 30.784 13.855 31.574 C12.913 32.375 11.971 33.175 11 34 C9.12 35.682 7.245 37.369 5.375 39.062 C3.188 41.031 3.188 41.031 1 43 C0.01 42.67 -0.98 42.34 -2 42 C-1.292 41.294 -0.585 40.587 0.145 39.859 C2.045 37.96 3.937 36.053 5.824 34.141 C6.779 33.177 7.733 32.214 8.688 31.25 C9.173 30.756 9.658 30.263 10.158 29.754 C13.774 26.113 13.774 26.113 16 25 C16.42 22.712 16.42 22.712 16 20 C13.813 17.396 13.813 17.396 11 15 C9.296 13.372 7.62 11.712 6 10 C6 9.34 6 8.68 6 8 C0.078 6.738 0.078 6.738 -5.438 8.438 C-5.953 8.953 -6.469 9.469 -7 10 C-7.66 10 -8.32 10 -9 10 C-7.849 6.547 -6.679 5.619 -3.938 3.312 C-2.837 2.379 -2.837 2.379 -1.715 1.426 C-1.149 0.955 -0.583 0.485 0 0 Z M-14 13 C-13.34 13.33 -12.68 13.66 -12 14 C-13.375 15.5 -13.375 15.5 -15 17 C-15.66 17 -16.32 17 -17 17 C-17 18.32 -17 19.64 -17 21 C-17.99 21.495 -17.99 21.495 -19 22 C-18.67 22.99 -18.34 23.98 -18 25 C-19.32 24.34 -20.64 23.68 -22 23 C-22 21.68 -22 20.36 -22 19 C-20.25 17.297 -20.25 17.297 -18 15.75 C-17.258 15.229 -16.515 14.708 -15.75 14.172 C-15.173 13.785 -14.595 13.398 -14 13 Z " fill="#878686" transform="translate(773,430)"/>
<path d="M0 0 C0.99 0.33 1.98 0.66 3 1 C3 1.66 3 2.32 3 3 C2.34 3 1.68 3 1 3 C0.67 2.01 0.34 1.02 0 0 Z M3 3 C7.197 5.202 9.698 7.731 12.625 11.438 C13.38 12.385 14.136 13.332 14.914 14.309 C15.602 15.197 16.291 16.085 17 17 C17.606 17.692 18.212 18.384 18.836 19.098 C20 21 20 21 19.863 23.051 C16.485 30.679 6.766 36.553 0 41 C-2.363 41.758 -2.363 41.758 -4 42 C-18.331 26.929 -18.331 26.929 -21 21 C-20.67 20.01 -20.34 19.02 -20 18 C-19.381 18.818 -19.381 18.818 -18.75 19.652 C-15.544 23.838 -12.277 27.971 -8.875 32 C-8.254 32.743 -7.632 33.485 -6.992 34.25 C-4.456 36.478 -3.407 37.116 0 37 C2.897 35.495 5.344 33.55 7.875 31.5 C8.576 30.982 9.277 30.464 10 29.93 C11.941 28.384 13.534 27.004 15 25 C15.084 20.727 14.788 18.883 11.938 15.688 C11.298 15.131 10.659 14.574 10 14 C10 13.34 10 12.68 10 12 C9.34 12 8.68 12 8 12 C5.828 9.038 4.164 6.493 3 3 Z " fill="#8A8989" transform="translate(315,433)"/>
<path d="M0 0 C3.117 3.004 5.851 6.19 8.562 9.562 C13.754 16.17 13.754 16.17 21 20 C20.67 21.32 20.34 22.64 20 24 C13.67 23.3 9.78 16.564 6 12 C0 4.063 0 4.063 0 0 Z " fill="#807F7F" transform="translate(294,451)"/>
<path d="M0 0 C2 1 2 1 2 1 Z M3 2 C4.485 2.99 4.485 2.99 6 4 C5.67 4.99 5.34 5.98 5 7 C4.34 5.35 3.68 3.7 3 2 Z M4 7 C4.33 7.99 4.66 8.98 5 10 C4.34 9.67 3.68 9.34 3 9 C3.33 8.34 3.66 7.68 4 7 Z M0 11 C0.66 11.33 1.32 11.66 2 12 C1.01 12 0.02 12 -1 12 C-0.67 11.67 -0.34 11.34 0 11 Z M-5 15 C-4.34 15.33 -3.68 15.66 -3 16 C-4.118 17.339 -5.245 18.671 -6.375 20 C-7.001 20.743 -7.628 21.485 -8.273 22.25 C-9.128 23.116 -9.128 23.116 -10 24 C-10.66 24 -11.32 24 -12 24 C-10.445 20.183 -7.964 17.808 -5 15 Z M-14 24 C-13.34 24.33 -12.68 24.66 -12 25 C-13.98 25.99 -13.98 25.99 -16 27 C-16 26.34 -16 25.68 -16 25 C-15.34 24.67 -14.68 24.34 -14 24 Z " fill="#939392" transform="translate(788,446)"/>
<path d="M0 0 C0.99 0.33 1.98 0.66 3 1 C3 1.66 3 2.32 3 3 C2.34 3 1.68 3 1 3 C0.67 2.01 0.34 1.02 0 0 Z M3 3 C7.088 5.155 9.511 7.531 12.312 11.188 C13.01 12.089 13.707 12.99 14.426 13.918 C14.945 14.605 15.465 15.292 16 16 C15.34 16.66 14.68 17.32 14 18 C12.624 16.71 11.292 15.373 10 14 C10 13.34 10 12.68 10 12 C9.34 12 8.68 12 8 12 C5.828 9.038 4.164 6.493 3 3 Z " fill="#868584" transform="translate(315,433)"/>
<path d="M0 0 C0.66 0.33 1.32 0.66 2 1 C0.515 1.99 0.515 1.99 -1 3 C-0.67 2.01 -0.34 1.02 0 0 Z M-6 6 C-5.34 6.33 -4.68 6.66 -4 7 C-5.375 8.5 -5.375 8.5 -7 10 C-7.66 10 -8.32 10 -9 10 C-9 11.32 -9 12.64 -9 14 C-9.99 14.495 -9.99 14.495 -11 15 C-10.67 15.99 -10.34 16.98 -10 18 C-11.32 17.34 -12.64 16.68 -14 16 C-14 14.68 -14 13.36 -14 12 C-12.25 10.297 -12.25 10.297 -10 8.75 C-9.258 8.229 -8.515 7.708 -7.75 7.172 C-7.173 6.785 -6.595 6.398 -6 6 Z " fill="#818080" transform="translate(765,437)"/>
<path d="M0 0 C-0.364 2.704 -0.681 3.744 -2.848 5.484 C-3.579 5.902 -4.309 6.32 -5.062 6.75 C-5.796 7.178 -6.529 7.606 -7.285 8.047 C-7.851 8.361 -8.417 8.676 -9 9 C-7.267 5.244 -4.572 0 0 0 Z " fill="#878686" transform="translate(324,464)"/>
<path d="M0 0 C3.255 3.023 5.618 6.257 8 10 C7.34 10.66 6.68 11.32 6 12 C4.992 10.568 3.994 9.129 3 7.688 C2.165 6.487 2.165 6.487 1.312 5.262 C0 3 0 3 0 0 Z " fill="#7E7E7D" transform="translate(294,451)"/>
<path d="M0 0 C0.99 0.33 1.98 0.66 3 1 C3 1.66 3 2.32 3 3 C2.34 3 1.68 3 1 3 C0.67 2.01 0.34 1.02 0 0 Z M3 3 C7.875 5.625 7.875 5.625 9 9 C6.378 7.951 5.206 7.351 3.75 4.875 C3.502 4.256 3.255 3.637 3 3 Z " fill="#838282" transform="translate(315,433)"/>
<path d="M0 0 C0.99 0.495 0.99 0.495 2 1 C1.01 1.495 1.01 1.495 0 2 C0 1.34 0 0.68 0 0 Z M-3 2 C-2.01 2.33 -1.02 2.66 0 3 C-2.97 5.475 -2.97 5.475 -6 8 C-6.66 7.67 -7.32 7.34 -8 7 C-6.35 5.35 -4.7 3.7 -3 2 Z M-10 8 C-8 9 -8 9 -8 9 Z " fill="#868585" transform="translate(309,436)"/>
<path d="M0 0 C1.376 1.29 2.708 2.627 4 4 C4 4.66 4 5.32 4 6 C3.01 5.67 2.02 5.34 1 5 C0.67 3.35 0.34 1.7 0 0 Z " fill="#848383" transform="translate(294,451)"/>
</svg>